<svg width="40" height="40" viewBox="0 0 40 40" fill="none" xmlns="http://www.w3.org/2000/svg">
<path fill-rule="evenodd" clip-rule="evenodd" d="M20.1482 5.45761C33.9224 5.45761 28.5541 28.2836 20.1482 28.2836C12.209 28.2836 6.37408 5.45761 20.1482 5.45761Z" fill="#FFE8BE"/>
<path d="M20 40C31.0457 40 40 31.0457 40 20C40 8.9543 31.0457 0 20 0C8.9543 0 0 8.9543 0 20C0 31.0457 8.9543 40 20 40Z" fill="#58B0E0"/>
<path fill-rule="evenodd" clip-rule="evenodd" d="M29.4414 12.9366L10.5592 13.0499C10.5592 13.0499 11.2375 23.5017 8.86401 26.7781H31.9715C31.3761 25.9043 29.8013 25.6227 29.4414 12.9366Z" fill="#60350A"/>
<path fill-rule="evenodd" clip-rule="evenodd" d="M11.7379 29.514L16.402 27.4512L23.8778 27.257L28.6804 29.7794L25.213 37.0383L20.2855 39.6843L15.1884 36.8687L11.7379 29.514Z" fill="#D5E1ED"/>
<path fill-rule="evenodd" clip-rule="evenodd" d="M16.0156 25.0357L24.3852 25.09V30.8823L16.0156 30.8273V25.0357Z" fill="#F9DCA4"/>
<path opacity="0.11" fill-rule="evenodd" clip-rule="evenodd" d="M24.3865 25.0991V27.4163C24.3956 27.6811 24.3869 27.9462 24.3606 28.2098C24.3216 28.5021 24.2537 28.7898 24.158 29.0687C21.3295 31.7645 16.7929 29.5736 16.0739 24.9697L24.3865 25.0991Z" fill="black"/>
<path fill-rule="evenodd" clip-rule="evenodd" d="M34.1731 34.1108C32.2992 35.9932 30.0691 37.4834 27.6129 38.4944C25.1568 39.5055 22.5239 40.0171 19.8679 39.9995C17.2118 39.9818 14.5859 39.4352 12.1435 38.3916C9.701 37.348 7.49091 35.8283 5.64221 33.9211L6.43251 31.916L12.3244 29.248C14.4358 33.1185 16.7322 36.7069 20.2966 39.2513C23.5232 36.5656 26.1367 33.2197 27.9614 29.4389L33.2326 31.9328L34.1731 34.1108Z" fill="#434955"/>
<path fill-rule="evenodd" clip-rule="evenodd" d="M12.369 15.6525C10.4544 16.4874 12.0829 20.4486 13.2881 20.4311C12.788 18.8817 12.4793 17.2769 12.369 15.6525Z" fill="#F9DCA4"/>
<path fill-rule="evenodd" clip-rule="evenodd" d="M28.16 15.6518C30.0759 16.4881 28.4468 20.4486 27.2416 20.4311C27.7416 18.8815 28.05 17.2764 28.16 15.6518Z" fill="#F9DCA4"/>
<path fill-rule="evenodd" clip-rule="evenodd" d="M20.1386 5.60907C25.7839 5.60907 28.1496 9.62203 28.2946 14.2609C28.4933 20.6104 24.6215 28.1315 20.1392 28.1315C15.8933 28.1315 11.9153 20.3528 12.1567 13.9385C12.325 9.43821 14.6253 5.60907 20.1386 5.60907Z" fill="#FFE8BE"/>
<path fill-rule="evenodd" clip-rule="evenodd" d="M21.6175 16.1703C22.6289 15.5525 23.8306 15.324 24.9981 15.5276H25.0013C28.3373 15.9353 28.389 16.9722 28.0648 17.2111C27.8477 17.3904 27.674 17.6166 27.5567 17.8726C27.4842 18.5484 27.2507 19.1969 26.8758 19.7638C26.6261 20.1549 26.2979 20.4899 25.9119 20.7475C25.526 21.0051 25.0907 21.1797 24.6337 21.2603C24.525 21.2777 24.4136 21.2913 24.2997 21.2978C23.8544 21.3297 23.4078 21.2551 22.997 21.0802C22.5862 20.9053 22.2229 20.6351 21.9372 20.292C21.5241 19.8069 21.2002 19.2525 20.9806 18.6544V18.6564C20.9806 18.6564 20.4648 17.5975 19.6395 18.5826C19.4178 19.2071 19.0845 19.7861 18.6557 20.2913C18.37 20.6346 18.0066 20.9049 17.5957 21.08C17.1848 21.255 16.7381 21.3296 16.2926 21.2978C16.1807 21.2908 16.0692 21.2783 15.9586 21.2603C15.5016 21.1797 15.0664 21.0051 14.6804 20.7475C14.2944 20.4899 13.9662 20.1549 13.7165 19.7638C13.3417 19.1971 13.1082 18.5488 13.0356 17.8732C12.9239 17.6163 12.7531 17.3895 12.5372 17.2111C12.2136 16.9716 12.2621 15.934 15.5981 15.5263H15.5994C16.7718 15.3237 17.9778 15.5562 18.991 16.18L18.9903 16.1793L18.9923 16.1806L19.1314 16.2654C19.5194 16.4638 19.9519 16.5592 20.3873 16.5424C20.8227 16.5256 21.2466 16.3973 21.6182 16.1696L21.6175 16.1703ZM18.5935 16.5832C17.992 16.2358 17.3152 16.0394 16.6211 16.0109C15.9271 15.9824 15.2364 16.1226 14.6084 16.4195C13.6304 16.8635 13.332 17.1768 13.7113 18.4667C13.8141 18.8186 13.9694 19.1529 14.1722 19.4583C14.401 19.8306 14.716 20.1423 15.0907 20.367C15.4655 20.5918 15.8888 20.723 16.3249 20.7496C16.6873 20.7745 17.0504 20.7129 17.3842 20.5697C17.718 20.4266 18.013 20.206 18.2447 19.9263C18.6284 19.4724 18.9266 18.9526 19.1249 18.3923C19.5644 17.2402 19.6829 17.1865 18.5942 16.5832H18.5935ZM25.679 16.292C25.0581 16.0587 24.3921 15.9704 23.7318 16.0338C23.0716 16.0972 22.4345 16.3105 21.8693 16.6577C20.8738 17.2473 21.055 17.3457 21.4952 18.4635C21.6909 18.9973 21.9793 19.4925 22.347 19.9263C22.5787 20.2061 22.8738 20.4267 23.2077 20.5699C23.5417 20.713 23.9049 20.7746 24.2674 20.7496C24.3606 20.744 24.4535 20.7336 24.5457 20.7185C24.9283 20.6496 25.2925 20.502 25.6151 20.2851C25.9378 20.0682 26.2119 19.7867 26.4201 19.4583C26.6114 19.1704 26.7605 18.8565 26.8628 18.5263C27.3172 17.07 26.912 16.7457 25.6797 16.2926L25.679 16.292Z" fill="#464449"/>
<path fill-rule="evenodd" clip-rule="evenodd" d="M11.5794 16.5748C11.5794 16.1619 12.2163 16.0014 12.6137 18.4797C12.9346 17.4674 13.1422 16.4226 13.2325 15.3645C13.9846 15.5101 14.7069 17.2078 14.4797 18.6965C16.5289 18.1936 21.7956 15.0156 23.5082 10.7198C27.8914 13.2447 27.8675 18.5476 27.8675 18.5476C27.8675 18.5476 28.0992 17.3179 28.2286 16.2719C28.2714 15.9237 28.4183 15.7975 28.7451 16.134C31.1154 11.2253 27.3788 3.72171 20.2571 3.6052C10.4784 3.44598 9.2344 14.035 11.58 16.5755L11.5794 16.5748Z" fill="#8A5C42"/>
<path fill-rule="evenodd" clip-rule="evenodd" d="M16.0292 27.4635C17.0518 28.9875 18.5094 30.1683 20.2124 30.8525L17.4887 34.8293L13.6589 28.4991L16.0292 27.4635Z" fill="white"/>
<path fill-rule="evenodd" clip-rule="evenodd" d="M24.3896 27.4635C23.3669 28.9874 21.9093 30.1683 20.2064 30.8525L22.9307 34.8293L26.7838 28.5716L24.3896 27.4635Z" fill="white"/>
<path d="M20.2091 34.564C20.509 34.564 20.7522 34.3209 20.7522 34.021C20.7522 33.721 20.509 33.4779 20.2091 33.4779C19.9092 33.4779 19.666 33.721 19.666 34.021C19.666 34.3209 19.9092 34.564 20.2091 34.564Z" fill="#434955"/>
<path d="M20.2091 36.9776C20.509 36.9776 20.7522 36.7345 20.7522 36.4346C20.7522 36.1346 20.509 35.8915 20.2091 35.8915C19.9092 35.8915 19.666 36.1346 19.666 36.4346C19.666 36.7345 19.9092 36.9776 20.2091 36.9776Z" fill="#434955"/>
<path fill-rule="evenodd" clip-rule="evenodd" d="M27.1826 16.011C28.3373 16.4719 28.2953 17.0344 28.0674 17.2026C27.8504 17.382 27.6767 17.6082 27.5593 17.8641C27.5088 18.3318 27.3815 18.788 27.1826 19.2143V16.011ZM13.2868 18.9101C13.1604 18.5735 13.0769 18.2223 13.0383 17.8648C12.9266 17.6079 12.7558 17.381 12.5399 17.2026C12.3218 17.0415 12.2726 16.5166 13.2868 16.0674V18.9101Z" fill="#464449"/>
</svg>
