<svg width="100" height="100" viewBox="0 0 100 100" fill="none" xmlns="http://www.w3.org/2000/svg">
<path d="M50 100C77.6142 100 100 77.6142 100 50C100 22.3858 77.6142 0 50 0C22.3858 0 0 22.3858 0 50C0 77.6142 22.3858 100 50 100Z" fill="#9F82BB"/>
<path fill-rule="evenodd" clip-rule="evenodd" d="M37.6294 62.589L63.3689 62.7848V83.6877L37.6294 83.4919V62.589Z" fill="#F9DCA4"/>
<path fill-rule="evenodd" clip-rule="evenodd" d="M86.5339 84.1311C81.8618 89.1449 76.2063 93.1418 69.9204 95.8721C63.6345 98.6025 56.8532 100.008 49.9999 100C47.9244 99.9999 45.8509 99.8718 43.7912 99.6165C37.4743 98.7113 31.3625 96.7162 25.7281 93.72C20.9729 91.0735 16.6796 87.6715 13.0161 83.6472L15.0922 78.6311L37.6245 68.5793C37.6245 75.9175 39.7443 84.7929 49.6617 84.9433C61.9109 85.1278 63.3672 76.0841 63.3672 68.5194L84.063 78.6845L86.5339 84.1311Z" fill="#434955"/>
<path opacity="0.11" fill-rule="evenodd" clip-rule="evenodd" d="M63.3754 62.7476V68.5405C63.3706 69.1801 63.317 69.8184 63.2152 70.4498C63.0879 71.2292 62.8735 71.9918 62.5761 72.7233C53.8803 79.4612 40.0211 73.9337 37.8091 62.424L63.3754 62.7476Z" fill="black"/>
<path fill-rule="evenodd" clip-rule="evenodd" d="M50.3706 13.644C84.8059 13.644 71.3868 70.7087 50.3706 70.7087C30.5227 70.7087 15.9353 13.644 50.3706 13.644Z" fill="#FFE8BE"/>
<path fill-rule="evenodd" clip-rule="evenodd" d="M29.7167 38.9093C24.7491 41.076 28.9724 51.3462 32.0986 51.3009C30.8019 47.2825 30.002 43.1221 29.7167 38.9093ZM71.4238 38.9077C76.3915 41.0744 72.1682 51.3462 69.0436 51.2993C70.3392 47.2813 71.1386 43.1198 71.4238 38.9077Z" fill="#F9DCA4"/>
<path fill-rule="evenodd" clip-rule="evenodd" d="M37.6245 68.5792C30.1196 70.3621 22.9197 73.2456 16.2588 77.1359C13.597 78.665 13.6617 81.0177 14.2572 81.8705C16.3866 84.9158 23.2394 81.0258 25.728 79.9935C29.9809 78.163 34.3235 76.5488 38.7394 75.1569C37.8394 73.0873 37.4567 70.8298 37.6245 68.5792Z" fill="#677079"/>
<path fill-rule="evenodd" clip-rule="evenodd" d="M50.4999 98.0986C45.6019 94.5549 37.6957 84.8786 37.6245 73.4821C37.6245 85.9093 63.3688 85.8608 63.3688 73.4336C62.3138 86.4368 55.3057 94.7588 50.4999 98.0986Z" fill="white"/>
<path fill-rule="evenodd" clip-rule="evenodd" d="M63.5553 68.2152C70.4718 70.2352 77.1017 73.1314 83.2834 76.8334C85.9452 78.3625 85.8805 80.7136 85.2851 81.5664C83.1556 84.6117 76.3029 80.7217 73.8142 79.691C68.9922 77.6926 63.8563 75.0469 62.4388 74.7929C63.3394 72.7235 63.7226 70.4659 63.5553 68.2152ZM37.6297 66.1651C37.4485 78.2929 46.9485 89.1586 53.8999 98.8188C53.6944 98.5291 54.1103 99.11 53.8999 98.8188C52.9728 98.7654 52.6378 99.5308 51.6685 99.377C43.0537 98.013 33.2495 92.9612 30.6637 88.9078C30.1734 88.1408 36.0682 82.5777 35.7624 81.733C35.5973 81.2735 30.6297 81.8884 27.8045 82.78C27.5973 82.8447 27.5747 82.3948 27.5278 82.1829C26.2187 76.1764 28.4873 69.4401 37.6297 66.1651Z" fill="#677079"/>
<path fill-rule="evenodd" clip-rule="evenodd" d="M51.0193 97.2249C51.096 97.2334 51.1701 97.2573 51.2373 97.2951C51.3045 97.333 51.3633 97.3841 51.4102 97.4453C51.4571 97.5066 51.4911 97.5767 51.5102 97.6514C51.5293 97.7261 51.533 97.8039 51.5212 97.8801C51.5094 97.9564 51.4823 98.0294 51.4415 98.0948C51.4007 98.1603 51.3471 98.2168 51.2838 98.261C51.2206 98.3051 51.1491 98.336 51.0736 98.3518C50.9981 98.3676 50.9202 98.3679 50.8446 98.3528C46.8237 97.6891 42.9157 96.4652 39.2345 94.7168C36.3902 93.5385 33.9002 91.6423 32.008 89.2136C31.5711 88.5259 32.9578 86.7443 34.419 84.877C35.4498 83.7211 36.342 82.4487 37.0776 81.0858C36.2098 80.9901 35.335 80.9744 34.4643 81.0388C32.7802 81.0756 31.1038 81.2783 29.4594 81.644C29.2815 81.6877 29.1051 81.7379 28.9352 81.7897L28.8963 81.801C28.7426 81.8408 28.5797 81.8242 28.4371 81.7541C28.2946 81.6841 28.182 81.5652 28.1196 81.4191C27.926 81.0031 27.8108 80.5549 27.7798 80.0971C27.709 79.3957 27.7063 78.689 27.7717 77.9871C28.0149 75.3933 29.0011 72.9248 30.6121 70.8776C32.2231 68.8304 34.3905 67.2913 36.8543 66.445C36.995 66.3886 37.1524 66.3904 37.2919 66.45C37.4313 66.5096 37.5414 66.6222 37.5978 66.763C37.6542 66.9037 37.6524 67.0611 37.5928 67.2006C37.5332 67.34 37.4206 67.4501 37.2798 67.5065C35.0151 68.2777 33.0211 69.6861 31.5372 71.5627C30.0532 73.4393 29.1425 75.7043 28.9141 78.0858C28.8543 78.7133 28.8554 79.3452 28.9174 79.9725C28.9378 80.1755 28.9708 80.3771 29.0161 80.5761L29.186 80.5324C30.9117 80.1489 32.671 79.9364 34.4384 79.8981C35.6329 79.7598 36.8426 79.9482 37.9384 80.4434C38.0297 80.5021 38.1021 80.5858 38.1472 80.6845C38.1574 80.7059 38.166 80.7281 38.173 80.7508L38.186 80.7945C38.3947 81.6359 36.8171 83.6586 35.3171 85.5793C34.5296 86.5815 33.7474 87.588 32.9708 88.5987C34.7521 90.8458 37.0805 92.5981 39.7329 93.6877C43.3114 95.388 47.1105 96.5787 51.0193 97.2249Z" fill="#434955"/>
<path fill-rule="evenodd" clip-rule="evenodd" d="M63.3692 66.1651C63.5569 78.6586 53.0342 89.9676 46.0391 99.8431C62.1507 100.086 67.1685 92.4725 70.3368 88.9062C70.9404 88.2266 64.9323 82.5777 65.2381 81.733C65.4031 81.2735 70.3708 81.8884 73.1944 82.78C73.4031 82.8447 73.4258 82.3965 73.4727 82.1829C74.7818 76.1764 72.5132 69.4401 63.3692 66.1651Z" fill="#677079"/>
<path fill-rule="evenodd" clip-rule="evenodd" d="M47.432 99.029C47.281 99.0159 47.1413 98.9434 47.0437 98.8273C46.9462 98.7112 46.8987 98.5612 46.9118 98.4101C46.9249 98.259 46.9975 98.1194 47.1135 98.0218C47.2296 97.9242 47.3797 97.8768 47.5307 97.8899C51.4139 98.1308 55.2944 97.3761 58.8042 95.6973C62.4557 94.1788 65.6465 91.7316 68.0599 88.5986C68.0631 88.5921 66.9175 87.1245 65.7136 85.5808C64.2136 83.6585 62.6359 81.6358 62.8447 80.7944L62.856 80.7523C62.8637 80.7291 62.8728 80.7064 62.8835 80.6844C62.9287 80.5853 63.0011 80.5012 63.0922 80.4417C64.1877 79.9474 65.3968 79.7595 66.5906 79.898C68.3585 79.9362 70.1184 80.1487 71.8447 80.5323L72.0129 80.576C72.0583 80.377 72.0913 80.1754 72.1116 79.9724C72.1736 79.3451 72.1747 78.7132 72.1149 78.0857C71.8863 75.7045 70.9753 73.4398 69.4914 71.5635C68.0075 69.6873 66.0137 68.2791 63.7492 67.508C63.6795 67.48 63.616 67.4385 63.5623 67.3859C63.5087 67.3333 63.4659 67.2706 63.4364 67.2015C63.407 67.1324 63.3915 67.0582 63.3907 66.983C63.3899 66.9079 63.404 66.8334 63.432 66.7637C63.4601 66.694 63.5016 66.6305 63.5542 66.5768C63.6068 66.5232 63.6694 66.4804 63.7385 66.4509C63.8076 66.4215 63.8819 66.4059 63.957 66.4052C64.0321 66.4044 64.1067 66.4185 64.1764 66.4465C66.6396 67.293 68.8065 68.8319 70.4171 70.8788C72.0278 72.9257 73.0139 75.3937 73.2573 77.987C73.3227 78.6889 73.32 79.3956 73.2492 80.097C73.2182 80.5548 73.103 81.003 72.9094 81.419C72.8471 81.5651 72.7344 81.684 72.5919 81.754C72.4493 81.8241 72.2864 81.8407 72.1327 81.8009L72.0938 81.7912C71.9212 81.7367 71.7469 81.6876 71.5712 81.6439C69.9263 81.2787 68.2493 81.0765 66.5647 81.0404C65.6946 80.9755 64.8204 80.9907 63.9531 81.0857C64.6889 82.4489 65.5817 83.7213 66.6133 84.8769C68.0728 86.7475 69.4612 88.5274 69.0226 89.2135C66.488 92.5323 63.1269 95.1279 59.2751 96.741C55.5868 98.5 51.5101 99.2887 47.432 99.029Z" fill="#434955"/>
<path d="M64.9045 89.7023C65.6543 89.7023 66.2621 89.0945 66.2621 88.3447C66.2621 87.5949 65.6543 86.9871 64.9045 86.9871C64.1547 86.9871 63.5469 87.5949 63.5469 88.3447C63.5469 89.0945 64.1547 89.7023 64.9045 89.7023Z" fill="#E6E6E6"/>
<path d="M36.2897 89.7023C37.0395 89.7023 37.6473 89.0945 37.6473 88.3447C37.6473 87.5949 37.0395 86.9871 36.2897 86.9871C35.54 86.9871 34.9321 87.5949 34.9321 88.3447C34.9321 89.0945 35.54 89.7023 36.2897 89.7023Z" fill="#E6E6E6"/>
<path d="M31.2541 79.144C32.0039 79.144 32.6117 78.5362 32.6117 77.7864C32.6117 77.0366 32.0039 76.4288 31.2541 76.4288C30.5043 76.4288 29.8965 77.0366 29.8965 77.7864C29.8965 78.5362 30.5043 79.144 31.2541 79.144Z" fill="#E6E6E6"/>
<path d="M69.9064 79.144C70.6562 79.144 71.264 78.5362 71.264 77.7864C71.264 77.0366 70.6562 76.4288 69.9064 76.4288C69.1566 76.4288 68.5488 77.0366 68.5488 77.7864C68.5488 78.5362 69.1566 79.144 69.9064 79.144Z" fill="#E6E6E6"/>
<path fill-rule="evenodd" clip-rule="evenodd" d="M27.563 41.7184C27.7113 41.0008 28.0348 40.3309 28.5047 39.7686C28.4649 43.8936 29.7214 47.9269 32.097 51.2993C29.5484 27.1489 34.5679 22.9078 34.5679 22.9078C34.5679 22.9078 49.6455 34.2848 66.3947 22.877C66.3947 22.877 71.7005 27.1472 69.152 51.2977C71.7005 47.5356 72.275 44.3285 72.4594 39.6553C73.0844 40.2663 73.4914 41.0656 73.618 41.9304C73.618 41.9304 76.4886 27.254 70.1326 19.1456C70.7086 18.2346 73.652 15.6845 74.5614 15.746C75.4708 15.8074 70.6779 13.8042 64.8526 14.7751C66.2359 13.3179 67.8573 12.107 69.6471 11.1942C66.6903 10.6211 63.6711 10.4372 60.6666 10.6473C62.3525 9.37823 64.1863 8.31869 66.1277 7.49192C61.4474 6.0726 56.4605 6.00976 51.7458 7.31069C53.4289 5.32427 55.4403 3.64129 57.6925 2.33496C57.6925 2.33496 42.3413 3.18447 34.3316 14.5922C33.8088 12.7799 33.8631 10.8497 34.487 9.06959C34.487 9.06959 24.3526 18.5825 27.563 41.7184ZM50.5808 74.9903C40.1973 70.2249 44.3996 63.4676 44.3996 63.4676C44.4944 64.2179 44.8002 64.926 45.2814 65.5094C45.7626 66.0929 46.3995 66.5278 47.118 66.7637C47.8719 65.1288 49.0722 63.74 50.5808 62.7573C51.9947 63.824 53.1528 65.1928 53.9708 66.7637C54.6892 66.5276 55.326 66.0926 55.8072 65.5092C56.2883 64.9258 56.5942 64.2179 56.6892 63.4676C56.6892 63.4676 60.9611 70.2249 50.5808 74.9903Z" fill="#464449"/>
<path fill-rule="evenodd" clip-rule="evenodd" d="M33.7976 39.2265L33.8996 39.2022C45.4077 36.343 48.0792 39.2443 48.7005 40.7281C49.9124 40.3677 51.2038 40.3733 52.4125 40.7443C53.0209 39.2653 55.6682 36.3317 67.2216 39.2022L67.3219 39.2265L69.1083 39.7006C69.2573 39.7421 69.3837 39.841 69.4598 39.9756C69.536 40.1102 69.5556 40.2695 69.5145 40.4186C69.4734 40.5677 69.3748 40.6944 69.2404 40.7709C69.1061 40.8474 68.9468 40.8675 68.7976 40.8268L67.7572 40.5452C67.7895 42.898 67.2458 49.4983 60.2005 50.0032C52.6924 50.5388 52.2151 43.7216 52.22 41.9109C51.1463 41.5385 49.9798 41.5305 48.9012 41.8883C48.9093 43.6666 48.4578 50.5404 40.919 50.0032C33.8737 49.4983 33.33 42.898 33.3623 40.5452L32.3235 40.8268C32.2496 40.8473 32.1723 40.853 32.0961 40.8437C32.02 40.8343 31.9464 40.8101 31.8796 40.7723C31.8128 40.7345 31.7541 40.6839 31.7069 40.6234C31.6596 40.563 31.6248 40.4938 31.6043 40.4198C31.5838 40.3459 31.578 40.2686 31.5874 40.1925C31.5967 40.1163 31.621 40.0427 31.6588 39.9759C31.6966 39.9091 31.7471 39.8505 31.8076 39.8032C31.8681 39.756 31.9373 39.7211 32.0112 39.7006L33.7976 39.2265Z" fill="#677079"/>
<path opacity="0.5" fill-rule="evenodd" clip-rule="evenodd" d="M58.4596 38.6456C59.7672 38.4894 61.0882 38.4791 62.3981 38.6148L57.7039 49.1537C56.5154 48.8247 55.449 48.1554 54.636 47.2281L58.4596 38.6456ZM39.7282 38.1278C41.1626 37.9566 42.6116 37.9452 44.0486 38.0938L38.8981 49.6504C37.5956 49.2897 36.4269 48.5563 35.5356 47.5404L39.7266 38.1294L39.7282 38.1278ZM45.5373 38.377L40.2848 49.9384C40.4898 49.9654 40.7012 49.987 40.9191 50.0032C41.0518 50.0113 41.1829 50.0193 41.3107 50.0242L46.4596 38.6941C46.1595 38.5686 45.8514 38.4632 45.5373 38.3786V38.377ZM63.7573 38.8737L58.9677 49.4158C59.1543 49.4406 59.3469 49.46 59.5454 49.474C59.6667 49.4821 59.7865 49.4902 59.903 49.4935L64.5988 39.1617C64.3248 39.0477 64.0437 38.9515 63.7573 38.8737Z" fill="#E6E6E6"/>
<path fill-rule="evenodd" clip-rule="evenodd" d="M33.7976 39.2265C33.8308 39.2153 33.8649 39.2071 33.8996 39.2022C45.4077 36.343 48.0792 39.2443 48.7005 40.7281C49.9124 40.3677 51.2038 40.3733 52.4125 40.7443C53.0209 39.2653 55.6682 36.3317 67.2216 39.2022C67.2557 39.2071 67.2893 39.2153 67.3219 39.2265C67.8963 39.3705 68.4902 39.5274 69.1083 39.7006C69.2573 39.7421 69.3837 39.841 69.4598 39.9756C69.536 40.1102 69.5556 40.2695 69.5145 40.4186C69.4734 40.5677 69.3748 40.6944 69.2404 40.7709C69.1061 40.8474 68.9468 40.8675 68.7976 40.8268C68.4416 40.7281 68.097 40.6342 67.7572 40.5452C67.7895 42.898 67.2458 49.4983 60.2005 50.0032C52.6924 50.5388 52.2151 43.7216 52.22 41.9109C51.1463 41.5385 49.9798 41.5305 48.9012 41.8883C48.9093 43.6666 48.4578 50.5404 40.919 50.0032C33.8737 49.4983 33.33 42.898 33.3623 40.5452C33.0225 40.6342 32.6779 40.7281 32.3235 40.8268C32.2496 40.8473 32.1723 40.853 32.0961 40.8437C32.02 40.8343 31.9464 40.8101 31.8796 40.7723C31.8128 40.7345 31.7541 40.6839 31.7069 40.6234C31.6596 40.563 31.6248 40.4938 31.6043 40.4198C31.5838 40.3459 31.578 40.2686 31.5874 40.1925C31.5967 40.1163 31.621 40.0427 31.6588 39.9759C31.6966 39.9091 31.7471 39.8505 31.8076 39.8032C31.8681 39.756 31.9373 39.7211 32.0112 39.7006C32.6293 39.5274 33.2232 39.3689 33.7976 39.2265ZM60.118 48.8349C66.5209 48.377 66.6552 41.9304 66.5808 40.2459C53.9384 37.1472 53.4222 41.1747 53.4012 41.4999L53.3979 41.5372C53.3979 41.5598 52.8284 49.3543 60.118 48.8349ZM33.8996 39.2022L34.0468 39.199C33.9973 39.1933 33.9472 39.1944 33.8979 39.2022H33.8996ZM34.5403 40.2443C34.4643 41.9304 34.6002 48.377 41.0015 48.8349C48.2912 49.3543 47.7216 41.5598 47.72 41.5372V41.4999C47.6973 41.1747 47.1811 37.1456 34.5403 40.2443Z" fill="#464449"/>
</svg>
