<svg width="29" height="29" viewBox="0 0 29 29" fill="none" xmlns="http://www.w3.org/2000/svg">
<path d="M16.8159 12.1841C15.5873 10.956 13.9212 10.2661 12.1841 10.2661C10.4469 10.2661 8.78085 10.956 7.55223 12.1841L2.91888 16.816C1.69024 18.0446 1 19.711 1 21.4486C1 23.1861 1.69024 24.8525 2.91888 26.0812C4.14752 27.3098 5.81392 28 7.55148 28C9.28904 28 10.9554 27.3098 12.1841 26.0812L14.5 23.7652" stroke="#7FFFAB" stroke-width="2" stroke-linecap="round" stroke-linejoin="round"/>
<path d="M12.1841 16.8159C13.4127 18.044 15.0788 18.7339 16.8159 18.7339C18.5531 18.7339 20.2192 18.044 21.4478 16.8159L26.0811 12.1841C27.3098 10.9554 28 9.28904 28 7.55148C28 5.81392 27.3098 4.14752 26.0811 2.91888C24.8525 1.69024 23.1861 1 21.4485 1C19.711 1 18.0446 1.69024 16.8159 2.91888L14.5 5.23481" stroke="#7FFFAB" stroke-width="2" stroke-linecap="round" stroke-linejoin="round"/>
</svg>
