<svg width="34" height="34" viewBox="0 0 34 34" fill="none" xmlns="http://www.w3.org/2000/svg">
<path d="M30 15C30 23.2843 23.2843 30 15 30C6.71573 30 0 23.2843 0 15C0 6.71573 6.71573 0 15 0C23.2843 0 30 6.71573 30 15ZM1.10524 15C1.10524 22.6739 7.32614 28.8948 15 28.8948C22.6739 28.8948 28.8948 22.6739 28.8948 15C28.8948 7.32614 22.6739 1.10524 15 1.10524C7.32614 1.10524 1.10524 7.32614 1.10524 15Z" fill="#7FFFAB"/>
<path d="M23.9246 17.3575C23.4082 19.3127 22.2639 21.0443 20.6676 22.2859C19.0714 23.5276 17.1116 24.2108 15.0893 24.2303C13.0671 24.2499 11.0944 23.6048 9.47445 22.3943C7.85448 21.1837 6.67688 19.4747 6.12265 17.5298L6.96724 17.2891C7.46874 19.0489 8.5343 20.5954 10.0001 21.6908C11.466 22.7862 13.251 23.3699 15.0808 23.3522C16.9107 23.3344 18.684 22.7163 20.1284 21.5928C21.5728 20.4692 22.6082 18.9024 23.0756 17.1332L23.9246 17.3575Z" fill="#7FFFAB"/>
<circle cx="8.65386" cy="9.8077" r="1.73077" fill="#7FFFAB"/>
<circle cx="21.3461" cy="9.8077" r="1.73077" fill="#7FFFAB"/>
<path d="M33.45 26.515C33.45 27.1695 32.9195 27.7 32.265 27.7H30.675C29.1921 27.7 27.99 28.9021 27.99 30.385V31.81C27.99 32.5059 27.4259 33.07 26.73 33.07C26.0341 33.07 25.47 32.5059 25.47 31.81V30.385C25.47 28.9021 24.2679 27.7 22.785 27.7H21.195C20.5406 27.7 20.01 27.1695 20.01 26.515C20.01 25.8605 20.5406 25.33 21.195 25.33H22.77C24.2612 25.33 25.47 24.1212 25.47 22.63V21.19C25.47 20.4941 26.0341 19.93 26.73 19.93C27.4259 19.93 27.99 20.4941 27.99 21.19V22.63C27.99 24.1212 29.1988 25.33 30.69 25.33H32.265C32.9195 25.33 33.45 25.8605 33.45 26.515Z" fill="#7FFFAB"/>
</svg>
